# xmcd
#
# Track frame offsets: 
#        150
#        22475
#        48135
#        76192
#        93865
#        118187
#        139590
#        159292
#
# Disc length: 2427 seconds
#
# Revision: 1
# Processed by: cddbd v1.5.1PL0 Copyright (c) Steve Scherf et al.
# Submitted via: ExactAudioCopy v0.95b2
#
DISCID=5b097908
DTITLE=Red Garland (1923-1984) - The Nearness of You 1961
DYEAR=1961
DGENRE=Jazz
TTITLE0=Why Was I Born
TTITLE1=The Nearness of You
TTITLE2=Where or When
TTITLE3=Long Ago and Far Away
TTITLE4=I Got It Bad and That Ain't Go
TTITLE5=Don't Worry About Me
TTITLE6=Lush Life
TTITLE7=All Alone
EXTD=YEAR: 1961
EXTT0=
EXTT1=
EXTT2=
EXTT3=
EXTT4=
EXTT5=
EXTT6=
EXTT7=
PLAYORDER=
